<svg xmlns="http://www.w3.org/2000/svg" enable-background="new 0 0 100 100" viewBox="0 0 100 100"><path d="M87.14,63.41L62,51.13V47.5c0-3.31-2.69-6-6-6h-3.72c0.46-1.35,1.46-2.53,2.85-3.27c3.73-1.97,5.98-5.82,5.86-10.04c-0.16-5.73-4.95-10.53-10.69-10.69c-2.98-0.08-5.83,1.02-7.98,3.11C40.18,22.7,39,25.5,39,28.5c0,1.1,0.9,2,2,2s2-0.9,2-2c0-1.91,0.75-3.69,2.12-5.02s3.16-2.01,5.08-1.98c3.65,0.1,6.7,3.15,6.8,6.8c0.07,2.69-1.36,5.14-3.73,6.39c-2.73,1.44-4.58,3.97-5.1,6.81H44c-3.31,0-6,2.69-6,6v3.63L12.86,63.41C8.08,65.74,5,70.68,5,75.99v4.51c0,1.1,0.9,2,2,2h86c1.1,0,2-0.9,2-2v-4.51C95,70.68,91.92,65.74,87.14,63.41z M14.61,67.01l26.27-12.83c0.69-0.33,1.12-1.03,1.12-1.8V47.5c0-1.1,0.9-2,2-2h12c1.1,0,2,0.9,2,2v4.88c0,0.76,0.44,1.46,1.12,1.8l26.27,12.83C88.8,68.67,91,72.2,91,75.99v1.3L50.88,57.7c-0.55-0.27-1.2-0.27-1.76,0L9,77.3V76C9,72.2,11.2,68.67,14.61,67.01z M84.35,78.5h-68.7L50,61.73L84.35,78.5z"/></svg>