<svg xmlns="http://www.w3.org/2000/svg" width="32" height="32" viewBox="0 0 32 32">
<title>wedding</title>

<path d="M-731.467 1099.182c-.496-.286-1.09-.414-1.634-.294-.545.12-1.04.487-1.366 1.052-.39.677-.249 1.48-.01 2.268.221.726.557 1.48.847 2.22l-.344.596a9.975 9.975 0 0 0-13.211 3.883c-2.759 4.778-1.145 10.886 3.633 13.645 4.778 2.758 10.902 1.117 13.66-3.66 2.67-4.625 1.211-10.494-3.216-13.368l.36-.623c.769-.111 1.585-.2 2.304-.365.802-.184 1.566-.462 1.958-1.143.33-.57.399-1.176.229-1.708s-.578-.983-1.072-1.268c-.477-.276-.929-.152-1.368-.068-.144-.427-.283-.886-.77-1.167zm-2.585 6.915a.5.5 0 0 0 .027.016l.054.031c4.248 2.51 5.713 7.98 3.24 12.263-2.488 4.31-8.011 5.767-12.321 3.279a8.992 8.992 0 0 1-3.294-12.294 8.992 8.992 0 0 1 12.294-3.295z" >
</svg>