<svg xmlns="http://www.w3.org/2000/svg" viewBox="0 0 64 64">
<title>wedding-dress</title>
<path d="M18.6 6.24c.68.73 1.49 1.34 2.4 1.79v1.98c0 1.93.52 3.81 1.5 5.46v.01c.98 1.65 1.5 3.53 1.5 5.46V21h16v-.06c0-1.93.52-3.81 1.5-5.46v-.01c.98-1.65 1.5-3.53 1.5-5.46V8.03c.91-.45 1.72-1.06 2.4-1.79.69-.73 1.25-1.57 1.65-2.51l.41-.94L44.65 1c-.71 1.64-2.37 3.49-4.11 3.93l-.81.2-1.08-.29c-2.38-.63-4.91.04-6.65 1.78a6.895 6.895 0 0 0-6.65-1.78l-1.08.29-.81-.2c-1.74-.44-3.4-2.29-4.11-3.93l-2.81 1.79.41.94c.4.94.96 1.78 1.65 2.51zm30.41 29.69c-.99-2.61-2.25-5.11-3.76-7.44A39.59 39.59 0 0 0 40.96 23H23.04c-3.5 3.75-6.23 8.13-8.05 12.93L7.06 56.82C8.4 58 9.6 59.54 11.18 60.05c1.31.43 2.8.13 4.28-.07h.01c.01-.01.02-.01.03-.02.04 0 .08.02.12.01.83-.13 1.79-.24 2.58-.07.89.19 1.79.76 2.75 1.36 1.2.77 2.45 1.56 3.91 1.71.17.02.35.03.52.03 1.26 0 2.47-.45 3.65-.89 1.06-.39 2.06-.76 2.97-.76s1.91.37 2.97.76c1.34.5 2.73 1.02 4.17.86 1.46-.15 2.71-.94 3.91-1.71.96-.6 1.86-1.17 2.75-1.36.79-.18 1.75-.06 2.58.07.04.01.08-.01.12-.01.01.01.02.01.03.02h.01c1.48.2 2.97.5 4.28.07 1.58-.51 2.78-2.05 4.12-3.23l-7.93-20.89zm-7.03 23.65c-1.06.67-2.06 1.3-3.04 1.41-1 .1-2.1-.31-3.27-.75-1.18-.44-2.4-.89-3.67-.89s-2.49.45-3.67.89c-1.17.44-2.29.85-3.27.75-.98-.11-1.98-.74-3.04-1.41-.98-.63-1.99-1.25-3.12-1.55C28.43 51.68 32 41 32 41s3.57 10.68 13.1 17.03c-1.13.3-2.14.92-3.12 1.55z"/></svg>